<svg width="16" height="16" viewBox="0 0 16 16" fill="none" xmlns="http://www.w3.org/2000/svg">
<path fill-rule="evenodd" clip-rule="evenodd" d="M7.85441 9.21507C7.89446 9.06633 8.10538 9.06633 8.14543 9.21507C8.56448 10.7715 9.78047 11.9874 11.3368 12.4065C11.4856 12.4465 11.4856 12.6574 11.3368 12.6975C9.78052 13.1166 8.56447 14.3326 8.14543 15.8889C8.10514 16.0372 7.89458 16.0373 7.85441 15.8889C7.43535 14.3325 6.21943 13.1166 4.66301 12.6975C4.51475 12.6573 4.51482 12.4468 4.66301 12.4065C6.21938 11.9874 7.43531 10.7714 7.85441 9.21507ZM3.30266 4.66332C3.3427 4.51457 3.55362 4.51457 3.59367 4.66332C4.01276 6.21969 5.22869 7.43567 6.78508 7.85472C6.93382 7.89477 6.93382 8.10569 6.78508 8.14574C5.22873 8.56484 4.01272 9.78078 3.59367 11.3371C3.55336 11.4853 3.34289 11.4854 3.30266 11.3371C2.88359 9.78073 1.66767 8.5648 0.111249 8.14574C-0.0371317 8.10556 -0.0370345 7.89501 0.111249 7.85472C1.6676 7.43568 2.88354 6.21964 3.30266 4.66332ZM12.4062 4.66332C12.4462 4.51457 12.6571 4.51457 12.6972 4.66332C13.1163 6.21968 14.3322 7.43566 15.8886 7.85472C16.0373 7.89477 16.0373 8.10569 15.8886 8.14574C14.3323 8.56484 13.1162 9.78078 12.6972 11.3371C12.6569 11.4853 12.4464 11.4854 12.4062 11.3371C11.9871 9.78073 10.7712 8.5648 9.21476 8.14574C9.0664 8.10556 9.0665 7.89502 9.21476 7.85472C10.7711 7.43568 11.9871 6.21964 12.4062 4.66332ZM7.85441 0.111559C7.89446 -0.0371862 8.10538 -0.0371862 8.14543 0.111559C8.5645 1.66791 9.78049 2.88389 11.3368 3.30296C11.4856 3.34301 11.4856 3.55393 11.3368 3.59398C9.78053 4.0131 8.56447 5.22905 8.14543 6.78539C8.10509 6.93356 7.89463 6.93366 7.85441 6.78539C7.43535 5.22897 6.21943 4.01304 4.66301 3.59398C4.51474 3.55376 4.51484 3.3433 4.66301 3.30296C6.21935 2.88392 7.43529 1.66787 7.85441 0.111559Z" fill="#4338CA"/>
</svg>
