<svg width="20" height="20" viewBox="0 0 20 20" fill="none" xmlns="http://www.w3.org/2000/svg">
<path d="M18.3337 7.08338V11.2501M11.8478 2.91672C11.2705 2.64267 10.6394 2.50049 10.0003 2.50049C9.36124 2.50049 8.73017 2.64267 8.15283 2.91672L2.57699 5.53088C1.36366 6.09922 1.36366 8.06755 2.57699 8.63588L8.15199 11.2501C8.72944 11.5242 9.36067 11.6665 9.99991 11.6665C10.6391 11.6665 11.2704 11.5242 11.8478 11.2501L17.4237 8.63588C18.637 8.06755 18.637 6.09922 17.4237 5.53088L11.8478 2.91672Z" stroke="#6B7280" stroke-width="1.5" stroke-linecap="round" stroke-linejoin="round"/>
<path d="M4.16699 9.5835V13.8543C4.16699 16.286 8.07866 17.5002 10.0003 17.5002C11.922 17.5002 15.8337 16.286 15.8337 13.8543V9.5835" stroke="#6B7280" stroke-width="1.5" stroke-linecap="round" stroke-linejoin="round"/>
</svg>
